# xmcd
# 
# Track frame offsets:
#     150
#     26523
#     51465
#     76914
# 
# Disc length: 1319
# 
# Revision: 0
# Processed by: cddbd v1.5.2PL0 Copyright (c) Steve Scherf et al.
# Submitted via: fre:ac v1.0.17
# 
DISCID=29052504
DTITLE=Benjamin Blümchen - Gute Nacht Geschichten
DYEAR=0
DGENRE=Hörspiel
TTITLE0=Der Schnarchsack
TTITLE1=Gute Nacht, Eulenkind
TTITLE2=Womit kuschelt Benjamin?
TTITLE3=Die beschütz-mich Katze
EXTD=
EXTT0=
EXTT1=
EXTT2=
EXTT3=
PLAYORDER=
